<svg xmlns="http://www.w3.org/2000/svg" viewBox="0 0 24 24" fill="none">
  <defs>
    <linearGradient id="grad" x1="0" y1="0" x2="24" y2="24" gradientUnits="userSpaceOnUse">
      <stop offset="0%" stop-color="#2563eb"/>
      <stop offset="100%" stop-color="#7c3aed"/>
    </linearGradient>
  </defs>
  <g stroke="url(#grad)" stroke-width="2" stroke-linecap="round" stroke-linejoin="round">
    
<path d="M9 4h6"/>
<path d="M10 2h4a1 1 0 0 1 1 1v2H9V3a1 1 0 0 1 1-1z"/>
<path d="M8 5h8a2 2 0 0 1 2 2v13a2 2 0 0 1-2 2H8a2 2 0 0 1-2-2V7a2 2 0 0 1 2-2z"/>
<path d="M9 11h8"/>
<path d="M9 15h8"/>
<path d="M9 19h6"/>
<path d="M7.5 11h0"/>
<path d="M7.5 15h0"/>
<path d="M7.5 19h0"/>

  </g>
</svg>