<svg xmlns="http://www.w3.org/2000/svg" viewBox="0 0 24 24" fill="none">
  <defs>
    <linearGradient id="grad" x1="0" y1="0" x2="24" y2="24" gradientUnits="userSpaceOnUse">
      <stop offset="0%" stop-color="#2563eb"/>
      <stop offset="100%" stop-color="#7c3aed"/>
    </linearGradient>
  </defs>
  <g stroke="url(#grad)" stroke-width="2" stroke-linecap="round" stroke-linejoin="round">
    
<path d="M4 12a8 8 0 0 1 16 0"/>
<path d="M4 12v4a2 2 0 0 0 2 2h2v-8H6a2 2 0 0 0-2 2z"/>
<path d="M20 12v4a2 2 0 0 1-2 2h-2v-8h2a2 2 0 0 1 2 2z"/>
<path d="M16 18c0 1.7-1.8 3-4 3"/>
<path d="M12 21H9"/>

  </g>
</svg>